<svg width="181" height="17" viewBox="0 0 181 17" fill="none" xmlns="http://www.w3.org/2000/svg">
<g clip-path="url(#clip0_36_123)">
<path d="M0.0335807 8.02018C0.0335807 7.04293 0.0335807 6.03198 0 5.12213H1.81336C1.84694 5.45911 1.9141 6.26787 1.9141 6.84074C2.41781 5.82979 3.35807 4.85254 5.10427 4.85254C6.64898 4.85254 7.72356 5.6613 8.16011 6.87444C8.73098 5.79609 9.77199 4.85254 11.6525 4.85254C13.4323 4.85254 15.1113 5.93088 15.1113 8.96373V16.3437H13.2644V9.19962C13.2644 7.91908 12.7942 6.53745 11.1152 6.53745C9.33544 6.53745 8.5295 7.91908 8.5295 9.90728V16.3437H6.68256V9.26701C6.68256 7.81799 6.27959 6.53745 4.56698 6.53745C2.82078 6.53745 1.98126 7.98648 1.98126 10.1095V16.3437H0.0335807V8.02018Z" fill="#C7C4C4"/>
<path d="M19.2081 11.1878C19.2417 13.4793 20.417 15.0968 22.3983 15.0968C24.2452 15.0968 24.8496 14.1532 25.219 13.3445H27.2675C26.7973 14.7935 25.5548 16.7143 22.3311 16.7143C18.6708 16.7143 17.1597 13.85 17.1597 10.9519C17.1597 7.61578 18.9059 4.95361 22.4654 4.95361C26.2265 4.95361 27.4689 7.85167 27.4689 10.2442C27.4689 10.6149 27.4689 10.8845 27.4354 11.1878H19.2081ZM25.4541 9.83987C25.4205 7.98646 24.4803 6.50373 22.499 6.50373C20.417 6.50373 19.5439 7.88536 19.3088 9.83987H25.4541Z" fill="#C7C4C4"/>
<path d="M39.0879 0.101074V13.176C39.0879 14.2207 39.0879 15.2653 39.1215 16.3436H37.3082C37.241 16.0404 37.2074 15.1979 37.2074 14.7598C36.6701 15.9393 35.562 16.6132 33.7486 16.6132C30.8943 16.6132 29.1816 14.2544 29.1816 10.8508C29.1816 7.4136 31.0622 4.85253 34.118 4.85253C36.0657 4.85253 36.9388 5.66129 37.2074 6.30156V0.101074H39.0879ZM34.118 14.962C36.6701 14.962 37.2746 13.0075 37.2746 10.5475C37.2746 8.05387 36.7373 6.47005 34.2859 6.47005C32.3382 6.47005 31.1293 8.05387 31.1293 10.7497C31.1293 13.4793 32.4054 14.962 34.118 14.962Z" fill="#C7C4C4"/>
<path d="M42.043 3.30225V0.909668H43.9571V3.33594H42.043V3.30225ZM42.043 5.05456H43.9571V16.2761H42.043V5.05456Z" fill="#C7C4C4"/>
<path d="M55.9117 12.9064C55.4416 14.8272 54.1319 16.6132 51.3111 16.6132C48.2217 16.6132 46.3076 14.3892 46.3076 10.7834C46.3076 7.6158 48.0874 4.85254 51.4455 4.85254C54.6692 4.85254 55.811 7.14402 55.9117 8.59305H53.9976C53.729 7.48101 53.0238 6.47006 51.3783 6.47006C49.397 6.47006 48.2889 8.18867 48.2889 10.716C48.2889 13.2771 49.3635 14.9957 51.3111 14.9957C52.688 14.9957 53.5275 14.2544 53.9976 12.9064H55.9117Z" fill="#C7C4C4"/>
<path d="M70.0156 16.3435V1.04443H71.9297V16.3435H70.0156Z" fill="#C7C4C4"/>
<path d="M76.161 13.1423C76.4968 14.3554 77.4706 15.0968 79.0825 15.0968C80.8287 15.0968 81.5339 14.3891 81.5339 13.3782C81.5339 12.2999 80.9966 11.8281 78.6795 11.3226C75.2543 10.5475 74.5491 9.53659 74.5491 8.02017C74.5491 6.43635 75.7916 4.88623 78.881 4.88623C81.9705 4.88623 83.2465 6.57114 83.4144 8.12127H81.4332C81.2317 7.4136 80.6608 6.40265 78.8139 6.40265C77.1348 6.40265 76.5975 7.14402 76.5975 7.88538C76.5975 8.72783 77.1013 9.13221 79.284 9.63769C82.9443 10.4464 83.6495 11.5922 83.6495 13.2434C83.6495 15.1979 81.9705 16.6469 78.9818 16.6469C75.8923 16.6469 74.3476 15.1979 74.0454 13.176H76.161V13.1423Z" fill="#E11F26"/>
<path d="M86.2688 5.12207C87.5449 10.379 88.2501 13.4118 88.4516 14.5576H88.4851C88.653 13.5129 89.3918 10.716 90.8358 5.12207H92.5484C94.1267 11.4573 94.6304 13.3108 94.7647 14.3217H94.7983C95.067 13.1423 95.4699 11.4573 97.0482 5.12207H98.828L95.705 16.3436H93.7909C92.817 12.2661 91.8096 8.4582 91.6081 7.24506H91.5746C91.4067 8.4582 90.5 11.8954 89.3582 16.3436H87.377L84.4219 5.12207H86.2688Z" fill="#E11F26"/>
<path d="M101.044 3.30225V0.875977H102.959V3.30225H101.044ZM101.044 5.12196H102.959V16.3435H101.044V5.12196Z" fill="#E11F26"/>
<path d="M104.704 5.35809H106.451V2.08936H108.163V5.35809H110.38V6.90821H108.163V13.3446C108.163 14.4229 108.398 14.9621 109.305 14.9621C109.54 14.9621 109.909 14.9284 110.178 14.861V16.2763C109.775 16.4448 109.171 16.4785 108.667 16.4785C107.089 16.4785 106.417 15.6024 106.417 13.7827V6.87451H104.671V5.35809H104.704Z" fill="#E11F26"/>
<path d="M111.454 14.9282L118.204 6.90805H111.824V5.25684H120.521V6.87435L113.839 14.8608H120.79L120.723 16.5121H111.421V14.9282H111.454Z" fill="#E11F26"/>
<path d="M124.114 11.053C124.148 13.3445 125.323 14.962 127.305 14.962C129.152 14.962 129.722 14.0185 130.092 13.2097H132.14C131.67 14.6587 130.428 16.5795 127.237 16.5795C123.577 16.5795 122.1 13.7152 122.1 10.8171C122.1 7.48101 123.846 4.81885 127.372 4.81885C131.133 4.81885 132.342 7.7169 132.342 10.1095C132.342 10.4802 132.342 10.7497 132.308 11.053H124.114ZM130.293 9.7051C130.26 7.85169 129.319 6.36897 127.338 6.36897C125.29 6.36897 124.383 7.7506 124.182 9.7051H130.293Z" fill="#E11F26"/>
<path d="M135.028 8.15498C135.028 6.57116 134.995 5.695 134.995 5.08843H136.808C136.842 5.39172 136.875 6.26787 136.875 7.37992C137.412 5.86349 138.689 4.88624 140.468 4.81885V6.73965C138.286 6.80705 136.875 8.02019 136.875 10.8508V16.31H135.028V8.15498Z" fill="#E11F26"/>
<path d="M142.583 16.3434V1.11182H144.498V16.3434H142.583Z" fill="#E11F26"/>
<path d="M159.576 7.95277C159.576 6.97552 159.576 5.99827 159.542 5.12212H161.423C161.49 5.4591 161.523 6.63854 161.523 6.97552C161.96 6.03197 162.866 4.88623 165.016 4.88623C167.131 4.88623 168.743 6.16677 168.743 9.16591V16.3773H166.795V9.3681C166.795 7.64949 166.124 6.53745 164.445 6.53745C162.329 6.53745 161.49 8.15496 161.49 10.4127V16.3436H159.542V7.95277H159.576Z" fill="#E11F26"/>
<path d="M180.966 0V13.1423C180.966 14.187 180.966 15.2316 181 16.31H179.086C179.019 16.0067 178.985 15.1642 178.985 14.6925C178.414 15.8719 177.273 16.5459 175.392 16.5459C172.437 16.5459 170.624 14.187 170.624 10.7498C170.624 7.27883 172.605 4.71776 175.761 4.71776C177.81 4.71776 178.683 5.52652 178.985 6.16679V0H180.966ZM175.795 14.962C178.448 14.962 179.086 13.0075 179.086 10.5476C179.086 8.02019 178.549 6.43637 175.963 6.43637C173.914 6.43637 172.672 8.02019 172.672 10.7498C172.672 13.4793 173.982 14.962 175.795 14.962Z" fill="#E11F26"/>
<path d="M66.8255 14.9957C66.8255 14.6924 66.7919 14.3554 66.7919 14.0184V8.66042C66.7919 6.13305 65.2136 4.9873 62.3593 4.9873C59.0012 4.9873 58.0273 6.77331 57.8594 8.32344H59.8071C60.0086 7.44728 60.3444 6.53743 62.2921 6.53743C64.4748 6.53743 64.7771 7.71687 64.7771 8.72781V9.67137H62.7958C59.337 9.67137 57.2886 10.8171 57.2886 13.3108C57.2886 15.0294 58.4639 16.748 61.2175 16.748C63.4674 16.748 64.4077 15.7371 64.8106 15.0294C64.8442 15.7034 64.9114 16.2425 64.9786 16.4784H66.624C66.9598 16.5795 67.8329 16.3436 67.8329 16.3436V14.9957H66.8255ZM64.8442 11.3563C64.8442 13.3782 64.4748 15.1979 61.6876 15.1979C60.2437 15.1979 59.4042 14.3554 59.4042 13.176C59.4042 11.5922 60.6466 10.9856 62.9637 10.9856H64.8442V11.3563Z" fill="#C7C4C4"/>
<path d="M156.117 14.6924C156.117 14.4229 156.083 14.1533 156.083 13.85V8.52565C156.083 5.96458 154.538 4.85254 151.717 4.85254C148.427 4.85254 147.453 6.63855 147.285 8.15497H149.199C149.4 7.27882 149.736 6.36896 151.65 6.36896C153.8 6.36896 154.102 7.5484 154.102 8.55935V9.5029H152.154C148.762 9.5029 146.748 10.6486 146.748 13.1423C146.748 14.8609 147.889 16.5795 150.609 16.5795C152.826 16.5795 153.732 15.5686 154.135 14.8609C154.169 15.5349 154.236 16.0741 154.303 16.31H156.184C156.217 16.31 156.855 16.3437 156.352 16.2763C157.023 16.3774 157.325 16.31 157.325 16.31V14.962C156.755 14.9957 156.318 14.8609 156.117 14.6924ZM154.135 11.2215C154.135 13.2434 153.766 15.0631 151.012 15.0631C149.602 15.0631 148.796 14.2207 148.796 13.0412C148.796 11.4574 150.005 10.8508 152.288 10.8508H154.135V11.2215Z" fill="#E11F26"/>
</g>
<defs>
<clipPath id="clip0_36_123">
<rect width="181" height="16.748" fill="white"/>
</clipPath>
</defs>
</svg>
